<?xml version="1.0" encoding="utf-8"?>
<!-- Generator: Adobe Illustrator 21.1.0, SVG Export Plug-In . SVG Version: 6.00 Build 0)  -->
<svg version="1.1" id="Calque_1" xmlns="http://www.w3.org/2000/svg" xmlns:xlink="http://www.w3.org/1999/xlink" x="0px" y="0px"
	 viewBox="0 0 432 432" style="enable-background:new 0 0 432 432;" xml:space="preserve">
<style type="text/css">
	.st0{fill:#BE1622;}
	.st1{fill:#C69C6C;}
	.st2{fill:#F39200;}
	.st3{fill:#F9B03D;}
	.st4{fill:#5BA7AD;}
	.st5{fill:#3F7579;}
	.st6{fill:#1B1B1B;}
	.st7{fill:#FFFFFF;}
	.st8{fill:#D8B6C4;}
	.st9{fill:#765844;}
	.st10{fill:#E9B2C5;}
	.st11{fill:#C7B29A;}
	.st12{fill:#EDBD7D;}
	.st13{fill:#1D71B8;}
	.st14{fill:#95C11F;}
	.st15{fill:#E94E1B;}
	.st16{fill:#575756;}
	.st17{fill:#844C16;}
	.st18{fill:#E50071;}
	.st19{fill:#AF175D;}
	.st20{fill:#E4051E;}
	.st21{fill:#13110C;}
	.st22{fill:#891A2C;}
	.st23{fill:#28295F;}
	.st24{fill:#CECFBC;}
	.st25{fill:#981F24;}
	.st26{fill:#020203;}
	.st27{fill:#BC2333;}
	.st28{fill:#AD1917;}
	.st29{fill:#04683B;}
	.st30{fill:#049348;}
	.st31{fill:#2D3D8D;}
	.st32{fill:#F39233;}
	.st33{fill:#EB5C35;}
	.st34{fill:#AA1917;}
	.st35{fill:#55514F;}
	.st36{fill:#20376D;}
	.st37{fill:#B3BBC5;}
	.st38{fill:#BAC6BC;}
	.st39{fill:#B4BA8C;}
	.st40{fill:#746458;}
	.st41{fill:#343434;}
	.st42{fill:#CEC3BC;}
	.st43{fill:#FBBA0E;}
	.st44{fill:#FED98D;}
	.st45{fill:#676767;}
	.st46{fill:#8DBE22;}
	.st47{fill:#D0E1A4;}
	.st48{fill:#EFE8E4;}
	.st49{fill:#754695;}
	.st50{fill:#A78BC0;}
	.st51{fill:#8EC045;}
	.st52{fill:#0D71B9;}
	.st53{fill:#EAC686;}
	.st54{fill:#D24063;}
	.st55{fill:#E2A11A;}
	.st56{fill:#E9BD71;}
	.st57{fill:#E8423E;}
	.st58{fill:#F8AE4C;}
	.st59{fill:#00A19A;}
	.st60{fill:#2578B9;}
	.st61{fill:#A29F9D;}
	.st62{fill:#D2B89A;}
	.st63{fill:#E6C2A9;}
	.st64{fill:#6E3B11;}
	.st65{fill:#9B6228;}
	.st66{fill:#C9A1CB;}
	.st67{fill:#F8AB00;}
	.st68{fill:#BEBBBB;}
	.st69{fill:#066938;}
	.st70{fill:#36A36A;}
	.st71{fill:#4F702A;}
	.st72{fill:#A4191E;}
	.st73{fill:#3AAA35;}
	.st74{fill:#D01419;}
	.st75{fill:#CA1527;}
	.st76{fill:#684A40;}
	.st77{fill:#9A7B65;}
	.st78{fill:#FBB700;}
	.st79{fill:#82BB26;}
	.st80{fill:#00A8E4;}
	.st81{fill:#CEA57B;}
	.st82{fill:#57B031;}
	.st83{fill:#E5251F;}
	.st84{fill:#EFDD37;}
	.st85{fill:#59C4E9;}
	.st86{fill:#F08017;}
	.st87{fill:#974393;}
	.st88{fill:#F9EA31;}
	.st89{fill:#C1292E;}
	.st90{fill:#F2D77E;}
	.st91{fill:#E6332A;}
	.st92{fill:#29235C;}
	.st93{fill:#3C3C3B;}
	.st94{fill:#2FAC66;}
	.st95{fill:#2D2E83;}
	.st96{fill:#645B51;}
	.st97{fill:#36A9E1;}
	.st98{fill:#312783;}
	.st99{fill:#2E4959;}
	.st100{fill:#5F8699;}
	.st101{fill:#172B35;}
	.st102{fill:#C3D5E4;}
	.st103{fill:#7B9135;}
	.st104{fill:#E59546;}
	.st105{fill:#B2C65F;}
	.st106{fill:#85BBB7;}
	.st107{fill:#F39323;}
	.st108{fill:#FFFFFE;}
	.st109{fill:#EFD2AC;}
	.st110{fill:#C0E0EF;}
	.st111{fill:#EFDAEC;}
	.st112{fill:#63B8A4;}
	.st113{fill:#BDCCD4;}
	.st114{fill:#8C633A;}
	.st115{fill:#CA9E67;}
	.st116{fill:#7D4E24;}
	.st117{fill:#B8B569;}
	.st118{fill:#E8C515;}
	.st119{fill:#A5A258;}
	.st120{fill:#AA884D;}
	.st121{fill:#9E994B;}
	.st122{fill:#D1A479;}
	.st123{fill:#936037;}
	.st124{fill:#FAFAFA;}
	.st125{fill:#98CDC5;}
	.st126{fill:#E1EBE8;}
	.st127{fill:#DDCE9E;}
	.st128{fill:#A67D52;}
	.st129{fill:#437156;}
	.st130{fill:#4F8366;}
	.st131{fill:#8F6947;}
	.st132{fill:#856143;}
	.st133{fill:#171512;}
	.st134{fill:#AA191B;}
	.st135{fill:#1C1A38;}
	.st136{fill:#8E8C38;}
	.st137{fill:#CAC955;}
	.st138{fill:#6C6A29;}
	.st139{fill:#D8D564;}
	.st140{fill:#5CABD5;}
	.st141{fill:#70B4D9;}
	.st142{fill:#9A9999;}
	.st143{fill:#B4B4B4;}
	.st144{fill:#ABAA3D;}
	.st145{fill:#D7DB2F;}
	.st146{fill:#B8CED8;}
	.st147{fill:#05AB9E;}
	.st148{fill:#DAB828;}
	.st149{fill:#EB7533;}
	.st150{fill:#EDE4CA;}
	.st151{fill:#575452;}
	.st152{fill:#F9F6F4;}
	.st153{fill:#94B2AA;}
	.st154{fill:#D8D7C4;}
	.st155{fill:#BAD68E;}
	.st156{fill:#F0E6E1;}
	.st157{fill:#BFD786;}
	.st158{fill:#E9E499;}
	.st159{fill:#A2D3C2;}
	.st160{fill:#EB7976;}
	.st161{fill:#EEF4E7;}
	.st162{fill:#EADA7F;}
	.st163{fill:#B2D9C2;}
	.st164{fill:#43B284;}
	.st165{fill:#9AC028;}
	.st166{fill:#D8AD80;}
	.st167{fill:#F2F2F2;}
	.st168{fill:#767574;}
	.st169{fill:#CDC8C6;}
	.st170{fill:#634E42;}
	.st171{fill:#E4E0DF;}
	.st172{fill:#D98F53;}
	.st173{fill:#E2CAB5;}
	.st174{fill:#B61824;}
	.st175{fill:#E2BAA0;}
	.st176{fill:#CF455A;}
	.st177{fill:#648546;}
	.st178{fill:#4F6834;}
	.st179{fill:#91BB64;}
	.st180{fill:#D1CE4D;}
	.st181{fill:#CFCE67;}
	.st182{fill:#E5E4BD;}
	.st183{fill:#A69F28;}
	.st184{fill:#E3BF32;}
	.st185{fill:#E68024;}
	.st186{fill:#D27444;}
	.st187{fill:#D1B05A;}
	.st188{fill:#F4E3BD;}
	.st189{fill:#668852;}
	.st190{fill:#A3C18F;}
	.st191{fill:#D8B41E;}
	.st192{fill:#E2DBBA;}
	.st193{fill:#603914;}
	.st194{fill:#CF1042;}
	.st195{fill:#2F8A7F;}
	.st196{fill:#D19A69;}
	.st197{fill:#E9C3A4;}
	.st198{fill:#F2BF21;}
	.st199{fill:#CFD3D1;}
	.st200{fill:#E9F2ED;}
	.st201{fill:#4E4D4D;}
	.st202{fill:#C4E2D0;}
	.st203{fill:#F3F3F3;}
	.st204{fill:#F8FAF9;}
	.st205{fill:#C6B5A8;}
	.st206{fill:#F2F1E7;}
	.st207{fill:#CEC87B;}
	.st208{fill:#C7E4E5;}
	.st209{fill:#D4894A;}
	.st210{fill:#FBFDFA;}
	.st211{fill:#B4CD5F;}
	.st212{fill:#1F1B15;}
	.st213{fill:#161210;}
	.st214{fill:#A8D1D2;}
	.st215{fill:#8E6640;}
	.st216{fill:#B22518;}
	.st217{fill:#683F1D;}
	.st218{fill:#F0F7F7;}
	.st219{fill:#CD924B;}
	.st220{fill:#CDCCCC;}
	.st221{fill:#F2D7C0;}
	.st222{fill:#B21924;}
	.st223{fill:#EDCEB1;}
	.st224{fill:#7D552C;}
	.st225{fill:#A0BC6F;}
	.st226{fill:#94AD65;}
	.st227{fill:#E7E6E6;}
	.st228{fill:#9FD6DB;}
	.st229{fill:#EACD7F;}
	.st230{fill:#E28C52;}
	.st231{fill:#141414;}
	.st232{fill:#E97E28;}
	.st233{fill:#D0C657;}
	.st234{fill:#F3BC95;}
	.st235{fill:#FBFDFC;}
	.st236{fill:#CA252F;}
	.st237{fill:#B8B6B7;}
	.st238{fill:#808181;}
	.st239{fill:#F7F5DB;}
	.st240{fill:#CA1618;}
	.st241{fill:#FDC30B;}
	.st242{fill:#5F3917;}
	.st243{fill:#FFDA36;}
	.st244{fill:#AB7049;}
	.st245{fill:#619DCF;}
	.st246{fill:#45779A;}
	.st247{fill:#68AFA1;}
	.st248{fill:#108E77;}
	.st249{fill:#A5779F;}
	.st250{fill:#008D36;}
	.st251{fill:#E83E49;}
	.st252{fill:#A12D38;}
	.st253{fill-rule:evenodd;clip-rule:evenodd;fill:#677124;}
</style>
<g>
	<g>
		<path class="st26" d="M288.4,352.5c-0.2-0.2-0.4-0.4-0.6-0.6c5-4-0.4-9.1-4-6.4c0.3-0.1-0.7,0.7-1.5,0c-1.2-2.8-9.9,3-5.8,11.9
			c-9.3,4.8-25.1,8.8-33.4,0.9c-6.9-6.5-9.8-17.3-20.3-19.2c-2.8-0.5-4.1,3.8-1.2,4.3c11.4,2.1,13.4,17.3,23.7,21.7
			c10.5,4.5,24.3,1.1,34-4.1c5.4,4.6,14.6,3.7,13.2-2.2C297,355.7,292.5,349.7,288.4,352.5z"/>
		<path class="st238" d="M260.6,114.7h-164c-8.2,0-14.9,6.7-14.9,14.9V285c0,8.2,6.7,14.9,14.9,14.9h31.1c0,0.4-0.1,0.8-0.1,1.2v4
			c-0.7,0.3-1.4,0.8-2,1.3l-13.2,13.2c-2.7,2.7-2.7,7,0,9.7c2.7,2.7,7,2.7,9.7,0l5.5-5.5v13.3c0,8.2,6.7,14.9,14.9,14.9h6.3
			c-0.1,0.4-0.1,0.8-0.1,1.2v6.2c0,3.4,2.8,6.2,6.2,6.2h3.7c3.4,0,6.2-2.8,6.2-6.2v-6.2c0-0.4,0-0.8-0.1-1.2h21.3v6.2
			c0,3.4,2.8,6.2,6.2,6.2h3.7c3.4,0,6.2-2.8,6.2-6.2v-6.2h6.2c8.2,0,14.9-6.7,14.9-14.9v-9.8l7.2,5.8c3.2,2.6,7.9,2.1,10.5-1.1
			c2.6-3.2,2.1-7.9-1.1-10.5l-12.6-10.1c-1.2-1-2.6-1.5-4-1.6v-8.6c0-0.4,0-0.8-0.1-1.2h37.3c10.4,1.2,15.1-6.3,14.9-14.9l0-155.3
			C275.6,121.4,268.8,114.7,260.6,114.7z"/>
		<ellipse class="st220" cx="177.3" cy="207.7" rx="83.1" ry="82.2"/>
		<g>
			<ellipse class="st6" cx="127.7" cy="220.5" rx="5.1" ry="11.1"/>
			<ellipse class="st6" cx="223.2" cy="222.1" rx="5.1" ry="11.1"/>
			<g>
				<path class="st6" d="M164.1,253.5c6.4,2.4,13.1,2.7,19.7,1c3-0.7,1.7-5.3-1.3-4.6c-5.8,1.5-11.5,1.1-17.2-1
					C162.5,247.8,161.3,252.4,164.1,253.5L164.1,253.5z"/>
			</g>
			<g>
				<path class="st6" d="M124.8,202.6c-1.7,0.3-3.2,1.2-4.2,2.5c-0.4,0.5-0.5,1.2,0,1.7c0.4,0.4,1.3,0.5,1.7,0
					c0.8-1.1,1.9-1.7,3.2-1.9c0.6-0.1,1-0.9,0.8-1.5C126.1,202.7,125.5,202.5,124.8,202.6L124.8,202.6z"/>
			</g>
			<g>
				<path class="st6" d="M223.8,206.5c1,0.1,1.9,0.4,2.7,0.9c1.3,0.7,2.5-1.3,1.2-2c-1.2-0.7-2.5-1.1-3.9-1.2
					C222.3,204,222.3,206.3,223.8,206.5L223.8,206.5z"/>
			</g>
			<g>
				<circle class="st220" cx="173.1" cy="304.2" r="4.7"/>
				<circle class="st220" cx="173.1" cy="318.4" r="3.9"/>
				<circle class="st220" cx="173.1" cy="332.6" r="5.5"/>
			</g>
		</g>
	</g>
	<path class="st239" d="M349.6,103.4c-2.1-10.6-8.9-19.8-17.4-26.2c-11.1-8.4-25-12.2-38.7-12.4c-17.4,0.1-35.7,6.5-47.1,20.2
		c-10.7,12.9-13,30.6-4.5,45.3c4.6,8.1,11.9,14.4,20,18.8c-1.4,2.5-3.9,4-6.7,5.3c-2.7,1.3-2.1,6,0.9,6.6c7.8,1.6,15.7-0.6,21.5-5.9
		c23.6,5.3,51.4-1.3,65.7-21.9C349.3,124.5,351.6,113.7,349.6,103.4z"/>
	<path class="st26" d="M269.1,93.3c0,0.5-0.4,1-1,1c-0.5,0-0.9-0.4-0.9-1c0-0.5,0.4-1,0.9-1C268.6,92.4,269.1,92.8,269.1,93.3z
		 M267.5,102.2V95h1.3v7.3H267.5z"/>
	<path class="st26" d="M273.2,93.1v1.3h-1.3v7.9h-1.3v-7.9h-1.1v-1.3h1.1v-2.3h1.3v2.3H273.2z"/>
	<path class="st26" d="M276.3,94.3c0,0.7-0.3,1.4-1.1,2.1l-0.9-0.9c0.3-0.3,0.5-0.6,0.6-0.8c-0.4-0.1-0.7-0.5-0.7-0.9
		c0-0.5,0.4-1,0.9-1C275.9,92.9,276.3,93.7,276.3,94.3z"/>
	<path class="st26" d="M280.9,99.5c0.4,0.7,0.4,1.5,0,2.1c-0.3,0.5-0.9,0.7-1.5,0.7c-0.2,0-0.4,0-0.5-0.1c-0.4-0.1-1.5-0.6-1.6-2.4
		l1.3-0.1c0.1,0.7,0.3,1.1,0.7,1.2c0.2,0.1,0.5,0,0.6-0.2c0.1-0.2,0-0.4-0.1-0.6c-0.2-0.3-0.5-0.5-0.9-0.7c-0.6-0.4-1.2-0.8-1.5-1.6
		c-0.3-0.8-0.1-1.7,0.5-2.3c0.7-0.6,1.7-0.8,2.5-0.5c0.8,0.3,1.3,1.2,1.3,2.3h-1.3c0-0.3-0.1-1-0.5-1.1c-0.3-0.1-0.8,0-1.1,0.3
		c-0.2,0.2-0.4,0.5-0.2,0.9c0.2,0.4,0.6,0.7,1,1C280.1,98.7,280.6,99,280.9,99.5z"/>
	<path class="st26" d="M290.3,93.1v1.3h-1.3v7.9h-1.3v-7.9h-1.1v-1.3h1.1v-2.3h1.3v2.3H290.3z"/>
	<path class="st26" d="M292.5,93.3c0,0.5-0.4,1-1,1c-0.5,0-0.9-0.4-0.9-1c0-0.5,0.4-1,0.9-1C292.1,92.4,292.5,92.8,292.5,93.3z
		 M290.9,102.2V95h1.3v7.3H290.9z"/>
	<path class="st26" d="M303.1,102.3l-1.3-0.1c0.1-1.7,0-4.7-0.9-5.7c-0.2-0.2-0.4-0.3-0.6-0.3c-0.1,0-0.2,0-0.3,0.2
		c-0.7,0.7-1,3.1-1,4.9c0,0.5,0,0.9,0,0.9l-1.3,0c0-0.1,0-0.5,0-1c-0.1-1.8-0.4-4.1-1.1-4.8c-0.2-0.2-0.3-0.2-0.4-0.2
		c-0.9,0.1-1.3,2.1-1.5,4.2v1.8l-1.3,0c0,0,0-0.8,0-1.8v-5.4h1.3v0.5c0.4-0.4,0.8-0.7,1.4-0.7c0.5,0,1,0.2,1.4,0.5
		c0.3,0.3,0.6,0.8,0.8,1.4c0.2-0.6,0.4-1,0.7-1.4c0.3-0.4,0.8-0.5,1.2-0.5c0.6,0,1.1,0.2,1.5,0.7
		C303.4,97.3,303.1,101.8,303.1,102.3z"/>
	<path class="st26" d="M307.2,100.2l1.3,0.2c-0.2,1.3-1,2.1-2,2.1c0,0,0,0-0.1,0c-1.2,0-2.6-1.3-2.8-4c-0.1-1.1,0.1-2,0.4-2.7
		c0.4-0.7,1-1.1,1.7-1.1c1.2-0.1,2.7,0.9,2.9,3.1l0.1,0.6l-3.8,0.6c0.3,1.6,1,2.3,1.5,2.3C306.9,101.2,307.1,100.8,307.2,100.2z
		 M307.3,97.3c-0.3-0.9-0.8-1.4-1.4-1.4c0,0-0.1,0-0.1,0c-0.5,0-0.9,0.6-1,1.7L307.3,97.3z"/>
	<path class="st26" d="M317.3,93.1v1.3H316v7.9h-1.3v-7.9h-1.1v-1.3h1.1v-2.3h1.3v2.3H317.3z"/>
	<path class="st26" d="M323.7,98.6c0,1.1-0.3,2.1-1,2.7c-0.6,0.6-1.4,0.9-2.2,0.9c-1.7,0-3.4-1.3-3.4-3.7c0-2.4,1.8-3.7,3.4-3.7
		c0.9,0,1.6,0.3,2.2,0.9C323.4,96.5,323.7,97.5,323.7,98.6z M322.4,98.6c0-0.8-0.2-1.4-0.6-1.9c-0.3-0.3-0.8-0.5-1.3-0.5
		c-1.1,0-2.1,0.8-2.1,2.4s1.1,2.4,2.2,2.4c0.5,0,1-0.2,1.3-0.5C322.2,100,322.4,99.4,322.4,98.6z"/>
	<path class="st26" d="M276.6,127.2c-0.5,0.9-1.9,2.5-5,2.5c-2.3,0-4.1-1.4-5.2-4c-0.7-1.8-0.9-3.5-0.9-3.6l2.6-0.2
		c0,0,0.5,5.2,3.5,5.2c0.9,0,2.1-0.2,2.7-1.2c0.5-0.8,0.3-2-0.3-3.1c-0.7-1.1-1.9-1.9-3.2-2.8c-1.8-1.3-3.9-2.7-4.8-5.2
		c-0.7-2-0.5-4.2,0.7-5.9c1.3-1.9,3.6-3,6.2-3c4.6,0,5.9,5,5.9,7.7l-2.6,0c0-0.2-0.1-5.1-3.3-5.1c-1.7,0-3.2,0.7-4.1,1.9
		c-0.7,1-0.8,2.3-0.4,3.5c0.6,1.7,2.2,2.8,3.9,3.9c1.5,1,3,2.1,3.9,3.6C277.4,123.3,277.5,125.5,276.6,127.2z"/>
	<path class="st26" d="M281.3,129.7l-0.5-23.7l2.6-0.1l0.5,21.1h8.1v2.6H281.3z"/>
	<path class="st26" d="M294.6,129.7L294,106l7.6,0.1l0,2.6l-4.9-0.1l0.2,10.5h3.4v2.6H297l0.1,5.3l5.6-0.1l0,2.6L294.6,129.7z"/>
	<path class="st26" d="M305.3,129.7l-0.5-23.7l7.6,0.1l0,2.6l-4.9-0.1l0.2,10.5h3.4v2.6h-3.4l0.1,5.3l5.6-0.1l0,2.6L305.3,129.7z"/>
	<path class="st26" d="M318.1,129.5l-2.6,0l0.3-23.2l1.1-0.2c0.8-0.1,7.7-1.1,10.1,2.7c1.2,1.9,1.2,4.3,0,6.4
		c-1.5,2.7-4.7,4.3-8.8,4.5L318.1,129.5z M318.3,117.1c3.1-0.2,5.5-1.3,6.5-3.2c0.7-1.2,0.7-2.6,0-3.7c-1.1-1.7-4.4-1.8-6.4-1.6
		L318.3,117.1z"/>
</g>
</svg>
